<svg width="60" height="49" viewBox="0 0 60 49" fill="none" xmlns="http://www.w3.org/2000/svg">
<g clip-path="url(#clip0_1_92)">
<path d="M0 45.9884H60V0.000274658H0V45.9884Z" fill="#A3A3A3"/>
<path d="M58.8075 44.823H1.04251V1.16739H58.8075V44.823Z" fill="#AFAFAF"/>
<path d="M56.7544 41.8821H2.7778V9.34985H56.7544V41.8821Z" fill="#CFD8E5"/>
<path d="M55.966 41.0843H3.40875V10.1496H55.966V41.0843Z" fill="#E2E9F2"/>
<path d="M56.7545 5.15945C56.7545 6.83662 55.3951 8.19505 53.717 8.19505C52.0417 8.19505 50.6814 6.83662 50.6814 5.15945C50.6814 3.48229 52.0417 2.12286 53.717 2.12286C55.3951 2.12286 56.7545 3.48229 56.7545 5.15945Z" fill="#A3A3A3"/>
<path d="M56.3251 5.15946C56.3251 6.59946 55.1579 7.76665 53.717 7.76665C52.277 7.76665 51.1098 6.59946 51.1098 5.15946C51.1098 3.71946 52.277 2.55136 53.717 2.55136C55.1579 2.55136 56.3251 3.71946 56.3251 5.15946Z" fill="#FF7031"/>
<path d="M48.8635 5.15945C48.8635 6.83662 47.5032 8.19505 45.827 8.19505C44.1498 8.19505 42.7895 6.83662 42.7895 5.15945C42.7895 3.48229 44.1498 2.12286 45.827 2.12286C47.5032 2.12286 48.8635 3.48229 48.8635 5.15945Z" fill="#A3A3A3"/>
<path d="M48.4351 5.15946C48.4351 6.59946 47.2661 7.76665 45.827 7.76665C44.387 7.76665 43.2198 6.59946 43.2198 5.15946C43.2198 3.71946 44.387 2.55136 45.827 2.55136C47.2661 2.55136 48.4351 3.71946 48.4351 5.15946Z" fill="#E2E9F2"/>
<path d="M40.8591 5.15945C40.8591 6.83662 39.4979 8.19505 37.8225 8.19505C36.1454 8.19505 34.785 6.83662 34.785 5.15945C34.785 3.48229 36.1454 2.12286 37.8225 2.12286C39.4979 2.12286 40.8591 3.48229 40.8591 5.15945Z" fill="#A3A3A3"/>
<path d="M40.4297 5.15946C40.4297 6.59946 39.2616 7.76665 37.8225 7.76665C36.3816 7.76665 35.2144 6.59946 35.2144 5.15946C35.2144 3.71946 36.3816 2.55136 37.8225 2.55136C39.2616 2.55136 40.4297 3.71946 40.4297 5.15946Z" fill="#E2E9F2"/>
<path d="M0 45.9884H60V0.000274658H0V45.9884Z" fill="url(#paint0_linear_1_92)"/>
<path d="M5.70103 0L39.5607 45.9882H53.6729L19.8132 0H5.70103Z" fill="white" fill-opacity="0.203922"/>
<path d="M26.6949 0L59.9997 45.2353V35.6512L33.7515 0H26.6949Z" fill="white" fill-opacity="0.203922"/>
<path d="M25.6275 19.5696H32.4497V12.7465H25.6275V19.5696Z" fill="url(#paint1_linear_1_92)"/>
<path d="M25.6275 48.9087H32.4497V42.0846H25.6275V48.9087Z" fill="url(#paint2_linear_1_92)"/>
<path d="M40.1494 34.2387H46.9725V27.4155H40.1494V34.2387Z" fill="url(#paint3_linear_1_92)"/>
<path d="M10.8103 34.2387H17.6344V27.4155H10.8103V34.2387Z" fill="url(#paint4_linear_1_92)"/>
<path d="M34.4897 20.5577L39.315 25.3821L44.1422 20.5577L39.316 15.7324L34.4897 20.5577Z" fill="url(#paint5_linear_1_92)"/>
<path d="M13.7456 41.3037L18.5709 46.1299L23.3953 41.3037L18.5709 36.4774L13.7456 41.3037Z" fill="url(#paint6_linear_1_92)"/>
<path d="M34.3875 41.2005L39.2128 46.024L44.0391 41.2005L39.2128 36.3743L34.3875 41.2005Z" fill="url(#paint7_linear_1_92)"/>
<path d="M13.6415 20.4546L18.4669 25.279L23.2912 20.4546L18.4669 15.6293L13.6415 20.4546Z" fill="url(#paint8_linear_1_92)"/>
<path d="M14.2209 30.8261C14.2209 38.9289 20.79 45.4971 28.8919 45.4971C36.9937 45.4971 43.5619 38.9289 43.5619 30.8261C43.5619 22.7252 36.9937 16.158 28.8919 16.158C20.79 16.158 14.2209 22.7252 14.2209 30.8261ZM21.2119 30.6799C21.2119 26.4386 24.6497 23.0008 28.8919 23.0008C33.1341 23.0008 36.5719 26.4386 36.5719 30.6799C36.5719 34.9221 33.1341 38.3599 28.8919 38.3599C24.6497 38.3599 21.2119 34.9221 21.2119 30.6799Z" fill="url(#paint9_linear_1_92)"/>
<path d="M19.4353 30.8261C19.4353 36.0489 23.67 40.2827 28.8919 40.2827C34.1137 40.2827 38.3475 36.0489 38.3475 30.8261C38.3475 25.6052 34.1137 21.3715 28.8919 21.3715C23.67 21.3715 19.4353 25.6052 19.4353 30.8261ZM21.3581 30.8261C21.3581 26.5849 24.7969 23.1471 29.0382 23.1471C33.2794 23.1471 36.7181 26.5849 36.7181 30.8261C36.7181 35.0683 33.2794 38.5061 29.0382 38.5061C24.7969 38.5061 21.3581 35.0683 21.3581 30.8261Z" fill="url(#paint10_linear_1_92)"/>
<path d="M26.2865 30.828C26.2865 32.3459 27.5194 33.5787 29.0382 33.5787C30.5569 33.5787 31.7888 32.3459 31.7888 30.828C31.7888 29.3074 30.5569 28.0755 29.0382 28.0755C27.5194 28.0755 26.2865 29.3074 26.2865 30.828Z" fill="url(#paint11_linear_1_92)"/>
<path d="M27.8353 30.4371C27.8353 29.509 28.5854 28.758 29.5116 28.758C30.4388 28.758 31.1916 29.509 31.1916 30.4371C31.1916 31.3615 30.4388 32.1152 29.5116 32.1152C28.5854 32.1152 27.8353 31.3615 27.8353 30.4371Z" fill="url(#paint12_linear_1_92)"/>
</g>
<defs>
<linearGradient id="paint0_linear_1_92" x1="29.995" y1="89.8413" x2="29.995" y2="1.30008" gradientUnits="userSpaceOnUse">
<stop stop-color="white" stop-opacity="0.101961"/>
<stop offset="0.13" stop-color="white" stop-opacity="0.0784314"/>
<stop offset="1" stop-color="white" stop-opacity="0.0509804"/>
</linearGradient>
<linearGradient id="paint1_linear_1_92" x1="29.0383" y1="19.9183" x2="29.0383" y2="10.2815" gradientUnits="userSpaceOnUse">
<stop stop-color="#8BC6FF"/>
<stop offset="1" stop-color="#008BFF"/>
</linearGradient>
<linearGradient id="paint2_linear_1_92" x1="29.0383" y1="50.8232" x2="29.0383" y2="37.1745" gradientUnits="userSpaceOnUse">
<stop stop-color="#8BC6FF"/>
<stop offset="1" stop-color="#008BFF"/>
</linearGradient>
<linearGradient id="paint3_linear_1_92" x1="30.7864" y1="30.8281" x2="48.8694" y2="30.8281" gradientUnits="userSpaceOnUse">
<stop stop-color="#8BC6FF"/>
<stop offset="1" stop-color="#008BFF"/>
</linearGradient>
<linearGradient id="paint4_linear_1_92" x1="10.2576" y1="30.8272" x2="43.3882" y2="30.8272" gradientUnits="userSpaceOnUse">
<stop stop-color="#8BC6FF"/>
<stop offset="1" stop-color="#008BFF"/>
</linearGradient>
<linearGradient id="paint5_linear_1_92" x1="45.5037" y1="-6.19331" x2="54.133" y2="-14.825" gradientUnits="userSpaceOnUse">
<stop stop-color="#8BC6FF"/>
<stop offset="1" stop-color="#008BFF"/>
</linearGradient>
<linearGradient id="paint6_linear_1_92" x1="45.7525" y1="18.3875" x2="63.1313" y2="1.01365" gradientUnits="userSpaceOnUse">
<stop stop-color="#8BC6FF"/>
<stop offset="1" stop-color="#008BFF"/>
</linearGradient>
<linearGradient id="paint7_linear_1_92" x1="-5.77245" y1="36.7725" x2="12.0288" y2="54.5773" gradientUnits="userSpaceOnUse">
<stop stop-color="#8BC6FF"/>
<stop offset="1" stop-color="#008BFF"/>
</linearGradient>
<linearGradient id="paint8_linear_1_92" x1="15.5928" y1="17.5777" x2="36.6546" y2="38.6395" gradientUnits="userSpaceOnUse">
<stop stop-color="#8BC6FF"/>
<stop offset="1" stop-color="#008BFF"/>
</linearGradient>
<linearGradient id="paint9_linear_1_92" x1="14.2218" y1="30.8272" x2="43.5617" y2="30.8272" gradientUnits="userSpaceOnUse">
<stop stop-color="#8BC6FF"/>
<stop offset="1" stop-color="#008BFF"/>
</linearGradient>
<linearGradient id="paint10_linear_1_92" x1="36.5992" y1="38.3098" x2="18.3965" y2="20.6355" gradientUnits="userSpaceOnUse">
<stop stop-color="#8BC6FF"/>
<stop offset="1" stop-color="#0079FF"/>
</linearGradient>
<linearGradient id="paint11_linear_1_92" x1="32.0288" y1="27.7455" x2="24.3618" y2="35.6399" gradientUnits="userSpaceOnUse">
<stop stop-color="#8BC6FF"/>
<stop offset="1" stop-color="#0079FF"/>
</linearGradient>
<linearGradient id="paint12_linear_1_92" x1="27.8352" y1="30.4372" x2="31.192" y2="30.4372" gradientUnits="userSpaceOnUse">
<stop stop-color="#8BC6FF" stop-opacity="0.301961"/>
<stop offset="1" stop-color="#8FD4FF" stop-opacity="0.301961"/>
</linearGradient>
<clipPath id="clip0_1_92">
<rect width="60" height="48.9087" fill="white"/>
</clipPath>
</defs>
</svg>
