<svg width="60" height="60" viewBox="0 0 60 60" fill="none" xmlns="http://www.w3.org/2000/svg">
<path d="M30.4464 28.3543C35.7072 28.3543 39.9883 24.0732 39.9883 18.811C39.9883 13.5508 35.7079 9.27164 30.4464 9.27164C25.1861 9.27164 20.907 13.5508 20.907 18.811C20.907 24.0732 25.1861 28.3543 30.4464 28.3543Z" fill="#F9EFE3"/>
<path d="M37.4037 26.7883C35.5272 28.4446 33.0666 29.4587 30.3725 29.4587C27.7035 29.4587 25.1934 28.4631 23.3222 26.8338C23.3064 26.8444 23.1468 26.8595 23.129 26.8675C20.0459 28.3259 18.0521 30.8453 18.0521 33.9626V51.1213H42.3494V33.9606C42.3488 30.8551 40.5422 28.2461 37.4037 26.7883Z" fill="#B0E0D4"/>
<path d="M12.5294 32.8325V41.1818H2.58989V31.3714C2.58989 29.5635 3.67451 28.2284 5.41385 27.4035C6.55055 28.3464 8.10791 28.9141 9.69626 28.9141C11.1936 28.9141 12.6204 28.4057 13.7262 27.5578L14.5233 28.1189C12.8169 29.8919 12.5294 32.7 12.5294 32.8325ZM9.79714 27.8097C6.78791 27.8097 4.33978 25.3602 4.33978 22.3497C4.33978 19.3391 6.78791 16.8897 9.79714 16.8897C12.809 16.8897 15.2598 19.3391 15.2598 22.3497C15.2598 25.3602 12.8097 27.8097 9.79714 27.8097Z" fill="#E0F1F8"/>
<path d="M45.9488 28.2732L46.8218 27.7127C47.9288 28.5587 49.3325 29.0677 50.8292 29.0677C52.4176 29.0677 53.9341 28.5 55.0714 27.5571C56.8114 28.3826 57.809 29.7171 57.809 31.5251V41.1818H47.8708V32.9868C47.8708 32.8543 47.6565 30.0455 45.9488 28.2732ZM45.3092 22.5026C45.3092 19.4921 47.76 17.0426 50.7719 17.0426C53.7811 17.0426 56.2292 19.4921 56.2292 22.5026C56.2292 25.5132 53.7811 27.9633 50.7719 27.9633C47.76 27.9633 45.3092 25.5132 45.3092 22.5026Z" fill="#E0F1F8"/>
<path d="M30.2334 30.6554C23.756 30.6554 18.4853 25.384 18.4853 18.904C18.4853 12.4259 23.756 7.15582 30.2334 7.15582C36.7121 7.15582 41.9842 12.4259 41.9842 18.904C41.9842 25.384 36.7121 30.6554 30.2334 30.6554ZM30.2334 10.469C25.5818 10.469 21.7985 14.253 21.7985 18.904C21.7985 23.5576 25.5818 27.3422 30.2334 27.3422C34.8857 27.3422 38.671 23.5576 38.671 18.904C38.6703 14.253 34.8851 10.469 30.2334 10.469Z" fill="#454B53"/>
<path d="M42.7516 52.3747C41.8365 52.3747 41.0947 51.633 41.0947 50.7178V34.0536C41.0947 31.3398 39.5499 29.1383 36.7451 27.8565C35.913 27.4761 35.5477 26.4936 35.9275 25.6609C36.3086 24.8281 37.2897 24.4622 38.1231 24.8433C42.118 26.6703 44.4079 30.027 44.4079 34.0543V50.7178C44.4086 51.633 43.6668 52.3747 42.7516 52.3747Z" fill="#454B53"/>
<path d="M17.8793 52.376C16.9642 52.376 16.2224 51.6343 16.2224 50.7191V34.0543C16.2224 30.0936 18.4253 26.7798 22.2666 24.9626C23.0947 24.5703 24.0811 24.9244 24.4727 25.7512C24.8644 26.578 24.511 27.5657 23.6842 27.9574C20.9703 29.2411 19.5363 31.3497 19.5363 34.0543V50.7185C19.5363 51.6343 18.7945 52.376 17.8793 52.376Z" fill="#454B53"/>
<path d="M9.7912 30.0646C5.56483 30.0646 2.12505 26.6242 2.12505 22.3958C2.12505 18.1668 5.56483 14.727 9.7912 14.727C14.0215 14.727 17.4633 18.1668 17.4633 22.3958C17.4626 26.6242 14.0215 30.0646 9.7912 30.0646ZM9.7912 18.0402C7.3912 18.0402 5.43823 19.9938 5.43823 22.3952C5.43823 24.7965 7.3912 26.7501 9.7912 26.7501C12.1952 26.7501 14.1494 24.7965 14.1494 22.3952C14.1494 19.9938 12.1945 18.0402 9.7912 18.0402Z" fill="#454B53"/>
<path d="M2.43428 42.7477C1.51912 42.7477 0.777359 42.0059 0.777359 41.0908V31.4176C0.777359 28.7591 2.15802 26.6406 4.66483 25.4525C5.49098 25.0622 6.47934 25.413 6.87098 26.2404C7.26329 27.0672 6.9112 28.0549 6.08373 28.4466C4.74263 29.0822 4.0912 30.0541 4.0912 31.4176V41.0908C4.0912 42.0059 3.34945 42.7477 2.43428 42.7477Z" fill="#454B53"/>
<path d="M50.7389 30.0646C46.5105 30.0646 43.0701 26.6242 43.0701 22.3958C43.0701 18.1668 46.5105 14.727 50.7389 14.727C54.9672 14.727 58.407 18.1668 58.407 22.3958C58.407 26.6242 54.9672 30.0646 50.7389 30.0646ZM50.7389 18.0402C48.3369 18.0402 46.3839 19.9938 46.3839 22.3952C46.3839 24.7965 48.3376 26.7501 50.7389 26.7501C53.1402 26.7501 55.0932 24.7965 55.0932 22.3952C55.0932 19.9938 53.1402 18.0402 50.7389 18.0402Z" fill="#454B53"/>
<path d="M58.1934 42.7477C57.2789 42.7477 56.5371 42.0059 56.5371 41.0908V31.4176C56.5371 30.027 55.86 29.0407 54.4648 28.4024C53.6327 28.022 53.2675 27.0383 53.6486 26.2068C54.0297 25.3741 55.0134 25.0101 55.8442 25.3906C58.4275 26.5734 59.8503 28.7136 59.8503 31.4183V41.0914C59.8503 42.0059 59.1086 42.7477 58.1934 42.7477Z" fill="#454B53"/>
</svg>
